<svg id="identity" xmlns="http://www.w3.org/2000/svg" xmlns:xlink="http://www.w3.org/1999/xlink" width="46.687" height="46.687" viewBox="0 0 46.687 46.687">
  <defs>
    <linearGradient id="linear-gradient" x1="0.5" x2="0.5" y2="1" gradientUnits="objectBoundingBox">
      <stop offset="0" stop-color="#1cddfc"/>
      <stop offset="1" stop-color="#b95dff"/>
    </linearGradient>
  </defs>
  <g id="Group_14" data-name="Group 14" transform="translate(5.836 27.234)">
    <path id="Path_10" data-name="Path 10" d="M15.644,15.945H3.973a.973.973,0,1,1,0-1.945H15.644a.973.973,0,1,1,0,1.945Z" transform="translate(-3 -14)" fill="url(#linear-gradient)"/>
  </g>
  <g id="Group_15" data-name="Group 15" transform="translate(5.836 33.07)">
    <path id="Path_11" data-name="Path 11" d="M13.7,18.945H3.973a.973.973,0,1,1,0-1.945H13.7a.973.973,0,1,1,0,1.945Z" transform="translate(-3 -17)" fill="url(#linear-gradient)"/>
  </g>
  <g id="Group_16" data-name="Group 16" transform="translate(12.644 5.836)">
    <path id="Path_12" data-name="Path 12" d="M10.391,10.781a3.891,3.891,0,1,1,3.891-3.891A3.894,3.894,0,0,1,10.391,10.781Zm0-5.836a1.945,1.945,0,1,0,1.945,1.945A1.948,1.948,0,0,0,10.391,4.945Z" transform="translate(-6.5 -3)" fill="url(#linear-gradient)"/>
  </g>
  <g id="Group_17" data-name="Group 17" transform="translate(8.754 15.562)">
    <path id="Path_13" data-name="Path 13" d="M19.09,15.781a.973.973,0,0,1-.973-.973V12.863A2.921,2.921,0,0,0,15.2,9.945H9.363a2.921,2.921,0,0,0-2.918,2.918v1.945a.973.973,0,0,1-1.945,0V12.863A4.87,4.87,0,0,1,9.363,8H15.2a4.87,4.87,0,0,1,4.863,4.863v1.945A.973.973,0,0,1,19.09,15.781Z" transform="translate(-4.5 -8)" fill="url(#linear-gradient)"/>
  </g>
  <g id="Group_18" data-name="Group 18">
    <path id="Path_14" data-name="Path 14" d="M18.48,40.851H4.863A4.87,4.87,0,0,1,0,35.988V4.863A4.87,4.87,0,0,1,4.863,0H28.207A4.87,4.87,0,0,1,33.07,4.863V16.652a.973.973,0,0,1-1.945,0V4.863a2.921,2.921,0,0,0-2.918-2.918H4.863A2.921,2.921,0,0,0,1.945,4.863V35.988a2.922,2.922,0,0,0,2.918,2.918H18.48a.973.973,0,1,1,0,1.945Z" fill="url(#linear-gradient)"/>
  </g>
  <g id="Group_19" data-name="Group 19" transform="translate(21.398 21.398)">
    <path id="Path_15" data-name="Path 15" d="M23.644,36.289A12.644,12.644,0,1,1,36.289,23.644,12.659,12.659,0,0,1,23.644,36.289Zm0-23.343a10.7,10.7,0,1,0,10.7,10.7A10.71,10.71,0,0,0,23.644,12.945Z" transform="translate(-11 -11)" fill="url(#linear-gradient)"/>
  </g>
  <g id="Group_20" data-name="Group 20" transform="translate(27.234 29.178)">
    <path id="Path_16" data-name="Path 16" d="M18.863,24.727a.983.983,0,0,1-.689-.284l-3.891-3.891a.972.972,0,0,1,1.375-1.375l3.155,3.155,6.124-7A.973.973,0,0,1,26.4,16.615L19.595,24.4a.97.97,0,0,1-.7.331Z" transform="translate(-14 -14.999)" fill="url(#linear-gradient)"/>
  </g>
</svg>
