<svg xmlns="http://www.w3.org/2000/svg" xmlns:xlink="http://www.w3.org/1999/xlink" width="46.69" height="42" viewBox="0 0 46.69 42">
  <defs>
    <linearGradient id="linear-gradient" x1="0.5" x2="0.5" y2="0.912" gradientUnits="objectBoundingBox">
      <stop offset="0" stop-color="#1cddfc"/>
      <stop offset="1" stop-color="#b95dff"/>
    </linearGradient>
  </defs>
  <g id="certificate" transform="translate(0 -40.936)">
    <path id="Path_4" data-name="Path 4" d="M45.094,34.936H1.6A1.632,1.632,0,0,0,0,36.6V42.45a.684.684,0,1,0,1.368,0V36.6a.233.233,0,0,1,.228-.237h43.5a.233.233,0,0,1,.228.237V71.342a.233.233,0,0,1-.228.237H36.33V70.1h6.879a.7.7,0,0,0,.684-.712V61.924a.684.684,0,1,0-1.368,0v6.748H36.33V65.511l.066.006a2.027,2.027,0,0,0,1.763-.394,2.26,2.26,0,0,0,.377-1.838,1.1,1.1,0,0,1,.473-1.215,1.883,1.883,0,0,0,0-3.228,1.1,1.1,0,0,1-.473-1.215c.134-1.594-.581-2.375-2.14-2.232a1.015,1.015,0,0,1-1.162-.493c-1-1.26-2.076-1.283-3.1,0a1.015,1.015,0,0,1-1.162.493c-1.531-.14-2.277.608-2.14,2.232a1.1,1.1,0,0,1-.473,1.215,1.883,1.883,0,0,0,0,3.228,1.1,1.1,0,0,1,.473,1.215c-.144,1.707.639,2.367,2.206,2.226v3.161H4.166v-29.4H42.525V58.124a.684.684,0,1,0,1.368,0V38.556a.7.7,0,0,0-.684-.712H3.482a.7.7,0,0,0-.684.712V69.384a.7.7,0,0,0,.684.712H31.04v1.482H1.6a.233.233,0,0,1-.228-.237V46.059a.684.684,0,1,0-1.368,0V71.342A1.632,1.632,0,0,0,1.6,73H31.04v3.225q.146.878.972.646l1.672-.81,1.672.81a.7.7,0,0,0,.972-.646V73h8.765a1.632,1.632,0,0,0,1.6-1.662V36.6a1.632,1.632,0,0,0-1.6-1.662ZM30.855,64.1c-.685.063-.718.025-.658-.688a2.506,2.506,0,0,0-.961-2.435c-.555-.481-.555-.556,0-1.036A2.505,2.505,0,0,0,30.2,57.5c-.06-.713-.027-.751.658-.688a2.311,2.311,0,0,0,2.335-1c.46-.578.53-.578.99,0a2.312,2.312,0,0,0,2.335,1c.685-.063.718-.025.658.688a2.506,2.506,0,0,0,.961,2.435c.555.481.555.556,0,1.037a2.505,2.505,0,0,0-.961,2.435c.06.713.027.751-.658.688a2.749,2.749,0,0,0-1.346.1,2.766,2.766,0,0,0-.989.9,2.586,2.586,0,0,1-.495.527,2.588,2.588,0,0,1-.495-.527,2.766,2.766,0,0,0-.989-.9,2.88,2.88,0,0,0-1.346-.1Zm3.118,10.536a.659.659,0,0,0-.577,0l-.988.479V66.34a1.5,1.5,0,0,0,2.553,0v8.773Z" transform="translate(0 6)" fill="url(#linear-gradient)"/>
    <path id="Path_5" data-name="Path 5" d="M90.757,129.9h27.269a.791.791,0,0,0,0-1.582H90.757A.791.791,0,0,0,90.757,129.9Z" transform="translate(-83.252 -78.548)" fill="url(#linear-gradient)"/>
    <path id="Path_6" data-name="Path 6" d="M117.722,174.73a.723.723,0,0,0-.626-.791H90.6c-.809,0-.809,1.582,0,1.582h26.5A.723.723,0,0,0,117.722,174.73Z" transform="translate(-80.499 -119.85)" fill="url(#linear-gradient)"/>
    <path id="Path_7" data-name="Path 7" d="M110.572,220.347a.791.791,0,0,0-.791-.791H90.757a.791.791,0,0,0,0,1.582h19.024A.791.791,0,0,0,110.572,220.347Z" transform="translate(-82.575 -161.15)" fill="url(#linear-gradient)"/>
    <path id="Path_8" data-name="Path 8" d="M102.769,273.455l-1.294,0c-.83,0-1.287-.221-1.456-1.1-.155-.8-1.313-.7-1.526,0-.094.31-.569,1.2-.983,1.126-.22-.039-.316-.377-.4-.553a6.744,6.744,0,0,1-.372-1.066c-.416-1.533-.5-3.133-.76-4.7-.151-.906-1.532-.65-1.554.21a24.205,24.205,0,0,1-1.494,8.008c-.362.953,1.167,1.365,1.525.421a22.371,22.371,0,0,0,.906-3.032,8.025,8.025,0,0,0,.453,1.1,1.882,1.882,0,0,0,2.412,1.047,2.7,2.7,0,0,0,.967-.707c.748.863,1.862.824,2.9.823q2.349,0,4.7-.01a.791.791,0,0,0,0-1.582Z" transform="translate(-84.905 -204.297)" fill="url(#linear-gradient)"/>
    <path id="Path_9" data-name="Path 9" d="M343.184,280.465a3.09,3.09,0,1,0-3.09-3.09A3.093,3.093,0,0,0,343.184,280.465Zm0-4.6a1.508,1.508,0,1,1-1.508,1.508A1.509,1.509,0,0,1,343.184,275.868Z" transform="translate(-309.708 -210.996)" fill="url(#linear-gradient)"/>
  </g>
</svg>
